<?xml version="1.0" encoding="utf-8"?>
<!-- Generator: Adobe Illustrator 19.0.0, SVG Export Plug-In . SVG Version: 6.00 Build 0)  -->
<svg version="1.1" id="layer" xmlns="http://www.w3.org/2000/svg" xmlns:xlink="http://www.w3.org/1999/xlink" x="0px" y="0px"
	 viewBox="-153 -46 652 652" style="enable-background:new -153 -46 652 652;" xml:space="preserve">
<style type="text/css">
	.st0{fill:#3B8E9A;}
	.st1{fill:#888888;}
</style>
<path class="st0" d="M220.9,151.2l29.6-17.6h-9.4L214,145.8l-27.7-12.2h-8.8l29.8,17.6H220.9z M235.3,246.3
	c12.9-4.2,22.6-11.4,23.9-21.6c0-14.4-16.8-20.2-33.4-23.6c-24.1-4.8-41.2-8.8-43.9-19.2c-0.5-1.5-0.5-2.2-0.5-3.3
	c0.5-11.2,16.3-18.2,30.8-18.2c14.7,0,24.1,1.9,33.4,10.7l8-2.6c-10.4-9.3-24.6-11.8-41.4-11.8c-14,0-26,2.4-34.6,6.6v-29.6h-21.3
	l-54.4,70.6h-0.5l-55.4-70.6H25V220h10.1v-75.5l60.9,77H77.4v86.4h8.6v-75.5l61.7,77.9h0.3l62.2-79v76.6h18.2v-57.5h32.2v80.6h18.7
	v-80.6h38.8v-4.1H235.3z M228.3,241.4v-19.9h-21.3l-17.4,22.6c-7.2-1.9-13.7-5.2-18.6-10.1l-8.8,3.3c5.7,5.5,14.2,9.1,24.1,11.2
	l-33.6,43.6H152l-54.8-69.8l62-78.8V220h18.2v-21c9.6,3.9,22.8,6.3,36.2,9.4c19.8,4.3,25.7,11.8,25.7,19.1
	C239.4,233,235.4,238,228.3,241.4"/>
<polygon class="st1" points="-131.1,352.8 -126.7,352.8 -115.2,377.6 -103.5,352.8 -99.5,352.8 -99.5,380.1 -102.2,380.1 
	-102.1,355.2 -113.6,380.1 -116.8,380.1 -128.7,355.2 -128.4,380.1 -131.1,380.1 "/>
<rect x="-89.1" y="352.8" class="st1" width="2.7" height="27.3"/>
<polygon class="st1" points="-76,352.8 -72.5,352.8 -53.4,377.3 -53.4,352.8 -50.7,352.8 -50.7,380.1 -54.4,380.1 -73.3,355.6 
	-73.3,380.1 -76,380.1 "/>
<rect x="-40.3" y="352.8" class="st1" width="2.7" height="27.3"/>
<g>
	<path class="st1" d="M-25.5,371.1v0.1c0,4.1,3.4,6.9,8.6,6.9c5.3,0,8.5-2.3,8.5-5.6c0-3.1-2.2-3.9-6.8-4.7l-5.8-1
		c-4.3-0.8-6.5-3-6.5-6.8c0-4.7,3.9-7.9,10.4-7.9c6.7,0,10.6,3.2,10.7,8.4H-9c-0.3-3.8-3.1-5.9-7.9-5.9c-4.8,0-7.7,2.1-7.7,5.3
		c0,2.9,2.2,3.8,6.8,4.6l5.2,0.9c4.9,0.9,7.2,3,7.2,7c0,5.2-4,8.4-11.1,8.4c-7.3,0-11.7-3.6-11.7-9.3v-0.4H-25.5z"/>
</g>
<polygon class="st1" points="11.2,355.3 0.6,355.3 0.6,352.8 24.4,352.8 24.4,355.3 13.9,355.3 13.9,380.1 11.2,380.1 "/>
<polygon class="st1" points="31.5,352.8 52.5,352.8 52.5,355.4 34.2,355.4 34.2,364.9 51.1,364.9 51.1,367.5 34.2,367.5 34.2,377.5 
	52.5,377.5 52.5,380.1 31.5,380.1 "/>
<g>
	<path class="st1" d="M61.2,352.8h13.1c6.5,0,9.8,2.5,9.8,7.3c0,3.6-1.4,5.7-4.7,6.8c3.1,0.5,3.8,1.9,4.2,5.2c0.4,3.6,0.2,6.4,1.3,8
		h-3.2c-0.8-2.5-0.6-5.2-0.9-8c-0.3-2.8-1.9-3.7-5.3-3.7H64v11.7h-2.7V352.8z M64,355.3v10.5H74c5,0,7.3-1.4,7.3-5.2
		c0-4.1-2.4-5.2-7.7-5.2H64z"/>
	<path class="st1" d="M95.4,371.1v0.1c0,4.1,3.4,6.9,8.7,6.9c5.3,0,8.5-2.3,8.5-5.6c0-3.1-2.2-3.9-6.8-4.7l-5.8-1
		c-4.3-0.8-6.5-3-6.5-6.8c0-4.7,3.9-7.9,10.4-7.9c6.7,0,10.6,3.2,10.7,8.4h-2.7c-0.3-3.8-3.1-5.9-7.9-5.9c-4.8,0-7.7,2.1-7.7,5.3
		c0,2.9,2.2,3.8,6.8,4.6l5.2,0.9c5,0.9,7.2,3,7.2,7c0,5.2-4,8.4-11.1,8.4c-7.3,0-11.7-3.6-11.7-9.3v-0.4H95.4z"/>
</g>
<polygon class="st1" points="132,355.3 121.5,355.3 121.5,352.8 145.3,352.8 145.3,355.3 134.7,355.3 134.7,380.1 132,380.1 "/>
<polygon class="st1" points="149.3,352.8 152.3,352.8 163.3,377.8 174.2,352.8 177.2,352.8 165,380.1 161.5,380.1 "/>
<g>
	<path class="st1" d="M196.7,380.8c-9,0-14.3-5.5-14.3-14.4c0-8.9,5.4-14.4,14.3-14.4c9,0,14.4,5.5,14.4,14.4
		C211,375.3,205.6,380.8,196.7,380.8 M208.2,366.5c0-7.3-4.3-11.7-11.6-11.7c-7.2,0-11.6,4.4-11.6,11.7c0,7.3,4.3,11.7,11.6,11.7
		C203.9,378.2,208.2,373.8,208.2,366.5"/>
	<path class="st1" d="M237.7,371.1v0.1c0,4.1,3.4,6.9,8.6,6.9c5.3,0,8.5-2.3,8.5-5.6c0-3.1-2.2-3.9-6.8-4.7l-5.8-1
		c-4.3-0.8-6.5-3-6.5-6.8c0-4.7,3.8-7.9,10.4-7.9c6.6,0,10.6,3.2,10.7,8.4h-2.7c-0.4-3.8-3.1-5.9-7.9-5.9c-4.8,0-7.7,2.1-7.7,5.3
		c0,2.9,2.2,3.8,6.8,4.6l5.2,0.9c5,0.9,7.2,3,7.2,7c0,5.2-4,8.4-11.1,8.4c-7.3,0-11.7-3.6-11.7-9.3v-0.4H237.7z M250,344.5h2.9
		l-5.3,5.6h-3.1l-5.3-5.6h2.9l3.9,4L250,344.5z"/>
</g>
<polygon class="st1" points="266.9,352.8 269.6,352.8 269.6,367.7 286.5,352.8 290.3,352.8 277.4,364.2 290.3,380.1 286.8,380.1 
	275.4,366 269.6,371.1 269.6,380.1 266.9,380.1 "/>
<g>
	<path class="st1" d="M309.2,380.8c-9,0-14.3-5.5-14.3-14.4c0-8.9,5.4-14.4,14.3-14.4c9,0,14.4,5.5,14.4,14.4
		C323.6,375.3,318.2,380.8,309.2,380.8 M320.8,366.5c0-7.3-4.4-11.7-11.6-11.7c-7.2,0-11.6,4.4-11.6,11.7c0,7.3,4.3,11.7,11.6,11.7
		C316.4,378.2,320.8,373.8,320.8,366.5"/>
</g>
<polygon class="st1" points="332.5,352.8 335.2,352.8 335.2,377.5 352.4,377.5 352.4,380.1 332.5,380.1 "/>
<g>
	<path class="st1" d="M362.2,371.1v0.1c0,4.1,3.4,6.9,8.7,6.9c5.3,0,8.5-2.3,8.5-5.6c0-3.1-2.2-3.9-6.8-4.7l-5.8-1
		c-4.4-0.8-6.5-3-6.5-6.8c0-4.7,3.8-7.9,10.4-7.9c6.7,0,10.6,3.2,10.7,8.4h-2.7c-0.3-3.8-3.1-5.9-7.9-5.9c-4.8,0-7.7,2.1-7.7,5.3
		c0,2.9,2.2,3.8,6.8,4.6l5.2,0.9c5,0.9,7.2,3,7.2,7c0,5.2-4,8.4-11.1,8.4c-7.3,0-11.7-3.6-11.7-9.3v-0.4H362.2z"/>
</g>
<polygon class="st1" points="398.8,355.3 388.2,355.3 388.2,352.8 412,352.8 412,355.3 401.5,355.3 401.5,380.1 398.8,380.1 "/>
<polygon class="st1" points="416.1,352.8 419.1,352.8 430,377.8 441,352.8 444,352.8 431.7,380.1 428.3,380.1 "/>
<path class="st1" d="M451.4,352.8h2.7v27.3h-2.7V352.8z M454.9,344.5h3.4l-4.5,5.6h-2.2L454.9,344.5z"/>
<g>
	<path class="st1" d="M465.9,376.8h3.1v4.4c0,2.6-0.7,4-3.1,4.8v-1.7c1-0.5,1.4-1.3,1.4-2.5v-1.6h-1.4V376.8z"/>
</g>
<polygon class="st1" points="-84.9,395.2 -81.3,395.2 -71.7,415.8 -62,395.2 -58.7,395.2 -58.7,417.9 -60.9,417.9 -60.8,397.2 
	-70.4,417.9 -73,417.9 -82.9,397.2 -82.7,417.9 -84.9,417.9 "/>
<polygon class="st1" points="-50.8,395.2 -48.6,395.2 -48.6,415.7 -34.3,415.7 -34.3,417.9 -50.8,417.9 "/>
<path class="st1" d="M-20.2,395.2h2.6l10.3,22.7h-2.3l-3.2-7h-12.4l-3.2,7h-2.3L-20.2,395.2z M-13.8,408.7l-5.2-11.6l-5.2,11.6
	H-13.8z M-17.2,388.3h2.9l-3.7,4.6h-1.9L-17.2,388.3z"/>
<g>
	<path class="st1" d="M15.7,397.2c2.5,1.9,3.6,5,3.6,9.3c0,4.3-1.1,7.3-3.6,9.3c-2.3,1.8-5.2,2-9.3,2h-8.3v-22.7h8.3
		C10.5,395.2,13.4,395.5,15.7,397.2 M0.4,397.2v18.4h6c3.2,0,5.6-0.2,7.4-1.4c2.2-1.5,3.2-4,3.2-7.9c0-3.8-1-6.3-3.2-7.7
		c-1.9-1.3-4.4-1.4-7.9-1.4H0.4z"/>
</g>
<polygon class="st1" points="26.1,395.2 43.5,395.2 43.5,397.3 28.4,397.3 28.4,405.3 42.3,405.3 42.3,407.4 28.4,407.4 28.4,415.7 
	43.5,415.7 43.5,417.9 26.1,417.9 "/>
<path class="st1" d="M48.5,415.6l16.7-18.3H49.3v-2.1h19v2.1l-17,18.3h17v2.2H48.5V415.6z M62.9,388.3h2.4l-4.4,4.6h-2.6l-4.4-4.6
	h2.4l3.2,3.4L62.9,388.3z"/>
<polygon class="st1" points="74.5,395.2 91.9,395.2 91.9,397.3 76.8,397.3 76.8,405.3 90.8,405.3 90.8,407.4 76.8,407.4 76.8,415.7 
	91.9,415.7 91.9,417.9 74.5,417.9 "/>
<path class="st1" d="M119.3,395.2h2.6l10.3,22.7h-2.3l-3.2-7h-12.4l-3.2,7h-2.3L119.3,395.2z M125.7,408.7l-5.2-11.6l-5.2,11.6
	H125.7z"/>
<polygon class="st1" points="156.5,397.3 147.7,397.3 147.7,395.2 167.5,395.2 167.5,397.3 158.7,397.3 158.7,417.9 156.5,417.9 "/>
<path class="st1" d="M172.7,395.2h17.4v2.1H175v7.9h14v2.1h-14v8.3h15.2v2.1h-17.4V395.2z M184.8,388.3h2.4l-4.4,4.6h-2.6l-4.4-4.6
	h2.4l3.2,3.4L184.8,388.3z"/>
<polygon class="st1" points="196.8,395.2 199.1,395.2 199.1,415.7 213.3,415.7 213.3,417.9 196.8,417.9 "/>
<g>
	<path class="st1" d="M227.8,418.5c-7.4,0-11.9-4.6-11.9-11.9c0-7.4,4.5-11.9,11.9-11.9c7.4,0,11.9,4.6,11.9,11.9
		C239.8,413.9,235.3,418.5,227.8,418.5 M237.4,406.5c0-6.1-3.6-9.7-9.6-9.7c-6,0-9.6,3.6-9.6,9.7c0,6.1,3.6,9.7,9.6,9.7
		C233.8,416.3,237.4,412.6,237.4,406.5"/>
</g>
<polygon class="st1" points="243.4,395.2 245.9,395.2 255,415.9 264.1,395.2 266.6,395.2 256.4,417.9 253.5,417.9 "/>
<path class="st1" d="M279.4,408.1l-9.8-12.9h2.9l8,11.1l8.1-11.1h2.8l-9.8,12.9v9.8h-2.3V408.1z M282.7,388.3h2.8l-3.7,4.6h-1.9
	L282.7,388.3z"/>
<g>
	<path class="st1" d="M307.7,396.8c-5.9,0-9.6,3.7-9.6,9.7c0,6,3.6,9.7,9.1,9.7c4.6,0,8-2.6,8.9-6.9h2.4c-1,5.6-5.4,9.1-11.3,9.1
		c-6.9,0-11.5-4.6-11.5-11.9c0-7.4,4.5-11.9,11.9-11.9c5.9,0,9.8,3,10.5,8H316C315.1,398.9,312.2,396.8,307.7,396.8"/>
</g>
<polygon class="st1" points="324.9,395.2 327.2,395.2 327.2,404.6 341.9,404.6 341.9,395.2 344.2,395.2 344.2,417.9 341.9,417.9 
	341.9,406.8 327.2,406.8 327.2,417.9 324.9,417.9 "/>
<g>
	<path class="st1" d="M362.8,418.5c-7.4,0-11.9-4.6-11.9-11.9c0-7.4,4.4-11.9,11.9-11.9c7.4,0,11.9,4.6,11.9,11.9
		C374.7,413.9,370.3,418.5,362.8,418.5 M372.4,406.5c0-6.1-3.6-9.7-9.6-9.7c-6,0-9.6,3.6-9.6,9.7c0,6.1,3.6,9.7,9.6,9.7
		C368.8,416.3,372.4,412.6,372.4,406.5"/>
</g>
<polygon class="st1" points="378.4,395.2 380.9,395.2 390,415.9 399.1,395.2 401.5,395.2 391.4,417.9 388.5,417.9 "/>
<polygon class="st1" points="414.3,408.1 404.6,395.2 407.5,395.2 415.5,406.3 423.6,395.2 426.4,395.2 416.6,408.1 416.6,417.9 
	414.3,417.9 "/>
</svg>
